<mxfile host="app.diagrams.net" modified="2023-10-06T20:02:16.011Z" agent="Mozilla/5.0 (Windows NT 10.0; Win64; x64) AppleWebKit/537.36 (KHTML, like Gecko) Chrome/117.0.0.0 Safari/537.36" etag="bbDRct1AGYVvGnb8jV2X" version="22.0.3" type="google">
  <diagram name="Seite-1" id="iugOcSq_H32nfj5X25wa">
    <mxGraphModel grid="1" page="1" gridSize="10" guides="1" tooltips="1" connect="1" arrows="1" fold="1" pageScale="1" pageWidth="827" pageHeight="1169" math="0" shadow="0">
      <root>
        <mxCell id="0" />
        <mxCell id="1" parent="0" />
        <mxCell id="eSbXYxMQ_tcYIed6nvcc-3" value="" style="rounded=1;whiteSpace=wrap;html=1;" vertex="1" parent="1">
          <mxGeometry x="679" y="170" width="780" height="730" as="geometry" />
        </mxCell>
        <mxCell id="eSbXYxMQ_tcYIed6nvcc-22" value="" style="rounded=1;whiteSpace=wrap;html=1;" vertex="1" parent="1">
          <mxGeometry x="749" y="232.43" width="620" height="307.57" as="geometry" />
        </mxCell>
        <mxCell id="eSbXYxMQ_tcYIed6nvcc-20" value="" style="rounded=1;whiteSpace=wrap;html=1;" vertex="1" parent="1">
          <mxGeometry x="380" y="555" width="210" height="115" as="geometry" />
        </mxCell>
        <mxCell id="eSbXYxMQ_tcYIed6nvcc-1" value="" style="rounded=1;whiteSpace=wrap;html=1;" vertex="1" parent="1">
          <mxGeometry x="90" y="170" width="210" height="250" as="geometry" />
        </mxCell>
        <mxCell id="eSbXYxMQ_tcYIed6nvcc-2" value="" style="rounded=1;whiteSpace=wrap;html=1;" vertex="1" parent="1">
          <mxGeometry x="380" y="170" width="210" height="340" as="geometry" />
        </mxCell>
        <mxCell id="eSbXYxMQ_tcYIed6nvcc-4" value="Frontend" style="text;html=1;strokeColor=none;fillColor=none;align=center;verticalAlign=middle;whiteSpace=wrap;rounded=0;fontStyle=1" vertex="1" parent="1">
          <mxGeometry x="165" y="140" width="60" height="30" as="geometry" />
        </mxCell>
        <mxCell id="eSbXYxMQ_tcYIed6nvcc-5" value="Backend" style="text;html=1;strokeColor=none;fillColor=none;align=center;verticalAlign=middle;whiteSpace=wrap;rounded=0;fontStyle=1" vertex="1" parent="1">
          <mxGeometry x="455" y="140" width="60" height="30" as="geometry" />
        </mxCell>
        <mxCell id="eSbXYxMQ_tcYIed6nvcc-6" value="Blockchain" style="text;html=1;strokeColor=none;fillColor=none;align=center;verticalAlign=middle;whiteSpace=wrap;rounded=0;fontStyle=1" vertex="1" parent="1">
          <mxGeometry x="1006.5" y="140" width="105" height="30" as="geometry" />
        </mxCell>
        <mxCell id="eSbXYxMQ_tcYIed6nvcc-34" style="edgeStyle=orthogonalEdgeStyle;rounded=0;orthogonalLoop=1;jettySize=auto;html=1;exitX=1;exitY=0.5;exitDx=0;exitDy=0;entryX=0;entryY=0.5;entryDx=0;entryDy=0;" edge="1" parent="1" source="eSbXYxMQ_tcYIed6nvcc-8" target="eSbXYxMQ_tcYIed6nvcc-15">
          <mxGeometry relative="1" as="geometry">
            <mxPoint x="400" y="515" as="targetPoint" />
            <Array as="points">
              <mxPoint x="340" y="240" />
              <mxPoint x="340" y="294" />
              <mxPoint x="403" y="294" />
            </Array>
          </mxGeometry>
        </mxCell>
        <mxCell id="eSbXYxMQ_tcYIed6nvcc-8" value="Investor Portal" style="rounded=1;whiteSpace=wrap;html=1;" vertex="1" parent="1">
          <mxGeometry x="112.5" y="200" width="165" height="80" as="geometry" />
        </mxCell>
        <mxCell id="eSbXYxMQ_tcYIed6nvcc-33" style="edgeStyle=orthogonalEdgeStyle;rounded=0;orthogonalLoop=1;jettySize=auto;html=1;entryX=0;entryY=0.5;entryDx=0;entryDy=0;" edge="1" parent="1" source="eSbXYxMQ_tcYIed6nvcc-9" target="eSbXYxMQ_tcYIed6nvcc-15">
          <mxGeometry relative="1" as="geometry" />
        </mxCell>
        <mxCell id="eSbXYxMQ_tcYIed6nvcc-9" value="Asset Owner Portal" style="rounded=1;whiteSpace=wrap;html=1;" vertex="1" parent="1">
          <mxGeometry x="112.5" y="310" width="165" height="80" as="geometry" />
        </mxCell>
        <mxCell id="eSbXYxMQ_tcYIed6nvcc-59" style="edgeStyle=orthogonalEdgeStyle;rounded=0;orthogonalLoop=1;jettySize=auto;html=1;exitX=0.5;exitY=1;exitDx=0;exitDy=0;" edge="1" parent="1" source="eSbXYxMQ_tcYIed6nvcc-11" target="eSbXYxMQ_tcYIed6nvcc-13">
          <mxGeometry relative="1" as="geometry" />
        </mxCell>
        <mxCell id="eSbXYxMQ_tcYIed6nvcc-82" value="transfer funds" style="edgeLabel;html=1;align=center;verticalAlign=middle;resizable=0;points=[];" connectable="0" vertex="1" parent="eSbXYxMQ_tcYIed6nvcc-59">
          <mxGeometry x="-0.1422" y="1" relative="1" as="geometry">
            <mxPoint as="offset" />
          </mxGeometry>
        </mxCell>
        <mxCell id="eSbXYxMQ_tcYIed6nvcc-60" style="edgeStyle=orthogonalEdgeStyle;rounded=0;orthogonalLoop=1;jettySize=auto;html=1;exitX=0.75;exitY=1;exitDx=0;exitDy=0;entryX=0.5;entryY=0;entryDx=0;entryDy=0;" edge="1" parent="1" source="eSbXYxMQ_tcYIed6nvcc-11" target="eSbXYxMQ_tcYIed6nvcc-14">
          <mxGeometry relative="1" as="geometry" />
        </mxCell>
        <mxCell id="eSbXYxMQ_tcYIed6nvcc-83" value="transfer funds" style="edgeLabel;html=1;align=center;verticalAlign=middle;resizable=0;points=[];" connectable="0" vertex="1" parent="eSbXYxMQ_tcYIed6nvcc-60">
          <mxGeometry x="-0.0747" relative="1" as="geometry">
            <mxPoint as="offset" />
          </mxGeometry>
        </mxCell>
        <mxCell id="eSbXYxMQ_tcYIed6nvcc-85" style="edgeStyle=orthogonalEdgeStyle;rounded=0;orthogonalLoop=1;jettySize=auto;html=1;entryX=0;entryY=0.5;entryDx=0;entryDy=0;exitX=0;exitY=0.5;exitDx=0;exitDy=0;" edge="1" parent="1" source="eSbXYxMQ_tcYIed6nvcc-11" target="eSbXYxMQ_tcYIed6nvcc-12">
          <mxGeometry relative="1" as="geometry">
            <Array as="points">
              <mxPoint x="955" y="302" />
              <mxPoint x="729" y="302" />
              <mxPoint x="729" y="422" />
            </Array>
          </mxGeometry>
        </mxCell>
        <mxCell id="eSbXYxMQ_tcYIed6nvcc-11" value="Service Contract" style="rounded=1;whiteSpace=wrap;html=1;" vertex="1" parent="1">
          <mxGeometry x="975.25" y="262.43" width="165" height="80" as="geometry" />
        </mxCell>
        <mxCell id="eSbXYxMQ_tcYIed6nvcc-12" value="Security Token Contract&lt;br&gt;ERC-1400" style="rounded=1;whiteSpace=wrap;html=1;" vertex="1" parent="1">
          <mxGeometry x="769" y="382.43" width="177.5" height="80" as="geometry" />
        </mxCell>
        <mxCell id="eSbXYxMQ_tcYIed6nvcc-69" style="edgeStyle=orthogonalEdgeStyle;rounded=0;orthogonalLoop=1;jettySize=auto;html=1;exitX=0.75;exitY=1;exitDx=0;exitDy=0;entryX=0.5;entryY=0;entryDx=0;entryDy=0;" edge="1" parent="1" source="eSbXYxMQ_tcYIed6nvcc-13" target="eSbXYxMQ_tcYIed6nvcc-31">
          <mxGeometry relative="1" as="geometry">
            <Array as="points">
              <mxPoint x="1102" y="500" />
              <mxPoint x="1058" y="500" />
              <mxPoint x="1058" y="510" />
              <mxPoint x="1058" y="510" />
            </Array>
          </mxGeometry>
        </mxCell>
        <mxCell id="eSbXYxMQ_tcYIed6nvcc-13" value="Liquidity Contract" style="rounded=1;whiteSpace=wrap;html=1;" vertex="1" parent="1">
          <mxGeometry x="969" y="382.43" width="177.5" height="80" as="geometry" />
        </mxCell>
        <mxCell id="eSbXYxMQ_tcYIed6nvcc-14" value="Revenue Distribution Contract" style="rounded=1;whiteSpace=wrap;html=1;" vertex="1" parent="1">
          <mxGeometry x="1169" y="382.43" width="177.5" height="80" as="geometry" />
        </mxCell>
        <mxCell id="eSbXYxMQ_tcYIed6nvcc-77" style="edgeStyle=orthogonalEdgeStyle;rounded=0;orthogonalLoop=1;jettySize=auto;html=1;exitX=0.994;exitY=0.573;exitDx=0;exitDy=0;entryX=1;entryY=0.5;entryDx=0;entryDy=0;exitPerimeter=0;" edge="1" parent="1" source="eSbXYxMQ_tcYIed6nvcc-15" target="eSbXYxMQ_tcYIed6nvcc-19">
          <mxGeometry relative="1" as="geometry">
            <Array as="points">
              <mxPoint x="610" y="309" />
              <mxPoint x="610" y="612" />
            </Array>
          </mxGeometry>
        </mxCell>
        <mxCell id="eSbXYxMQ_tcYIed6nvcc-15" value="REST API" style="rounded=1;whiteSpace=wrap;html=1;" vertex="1" parent="1">
          <mxGeometry x="402.5" y="187.5" width="165" height="212.5" as="geometry" />
        </mxCell>
        <mxCell id="eSbXYxMQ_tcYIed6nvcc-16" value="User Database" style="rounded=1;whiteSpace=wrap;html=1;" vertex="1" parent="1">
          <mxGeometry x="402.5" y="415" width="165" height="80" as="geometry" />
        </mxCell>
        <mxCell id="eSbXYxMQ_tcYIed6nvcc-43" style="edgeStyle=orthogonalEdgeStyle;rounded=0;orthogonalLoop=1;jettySize=auto;html=1;entryX=1;entryY=0.5;entryDx=0;entryDy=0;exitX=1.005;exitY=0.665;exitDx=0;exitDy=0;exitPerimeter=0;" edge="1" parent="1" source="eSbXYxMQ_tcYIed6nvcc-15" target="eSbXYxMQ_tcYIed6nvcc-16">
          <mxGeometry relative="1" as="geometry">
            <Array as="points">
              <mxPoint x="580" y="329" />
              <mxPoint x="580" y="455" />
            </Array>
          </mxGeometry>
        </mxCell>
        <mxCell id="eSbXYxMQ_tcYIed6nvcc-19" value="peaq SDK" style="rounded=1;whiteSpace=wrap;html=1;" vertex="1" parent="1">
          <mxGeometry x="402.5" y="572.5" width="165" height="80" as="geometry" />
        </mxCell>
        <mxCell id="eSbXYxMQ_tcYIed6nvcc-21" value="Integrations" style="text;html=1;strokeColor=none;fillColor=none;align=center;verticalAlign=middle;whiteSpace=wrap;rounded=0;fontStyle=1" vertex="1" parent="1">
          <mxGeometry x="455" y="525" width="60" height="30" as="geometry" />
        </mxCell>
        <mxCell id="eSbXYxMQ_tcYIed6nvcc-23" value="Smart Contracts" style="text;html=1;strokeColor=none;fillColor=none;align=center;verticalAlign=middle;whiteSpace=wrap;rounded=0;fontStyle=1" vertex="1" parent="1">
          <mxGeometry x="1006.5" y="202.43" width="105" height="30" as="geometry" />
        </mxCell>
        <mxCell id="eSbXYxMQ_tcYIed6nvcc-28" value="" style="rounded=1;whiteSpace=wrap;html=1;" vertex="1" parent="1">
          <mxGeometry x="747.75" y="697.43" width="411.25" height="150" as="geometry" />
        </mxCell>
        <mxCell id="eSbXYxMQ_tcYIed6nvcc-29" value="Wallets" style="text;html=1;strokeColor=none;fillColor=none;align=center;verticalAlign=middle;whiteSpace=wrap;rounded=0;fontStyle=1;shadow=1;" vertex="1" parent="1">
          <mxGeometry x="906.5" y="667.43" width="105" height="30" as="geometry" />
        </mxCell>
        <mxCell id="eSbXYxMQ_tcYIed6nvcc-30" value="Investor Wallet" style="rounded=1;whiteSpace=wrap;html=1;" vertex="1" parent="1">
          <mxGeometry x="775.25" y="732.43" width="165" height="80" as="geometry" />
        </mxCell>
        <mxCell id="eSbXYxMQ_tcYIed6nvcc-31" value="Asset Owner Wallet" style="rounded=1;whiteSpace=wrap;html=1;" vertex="1" parent="1">
          <mxGeometry x="975.8800000000001" y="732.43" width="165" height="80" as="geometry" />
        </mxCell>
        <mxCell id="eSbXYxMQ_tcYIed6nvcc-45" value="register BB" style="edgeLabel;html=1;align=center;verticalAlign=middle;resizable=0;points=[];" connectable="0" vertex="1" parent="1">
          <mxGeometry x="545.0014942528736" y="319.0046958490591" as="geometry">
            <mxPoint x="-10" y="10" as="offset" />
          </mxGeometry>
        </mxCell>
        <mxCell id="eSbXYxMQ_tcYIed6nvcc-46" style="edgeStyle=orthogonalEdgeStyle;rounded=0;orthogonalLoop=1;jettySize=auto;html=1;exitX=1;exitY=0.107;exitDx=0;exitDy=0;exitPerimeter=0;entryX=0.51;entryY=0.007;entryDx=0;entryDy=0;entryPerimeter=0;" edge="1" parent="1" source="eSbXYxMQ_tcYIed6nvcc-15" target="eSbXYxMQ_tcYIed6nvcc-11">
          <mxGeometry relative="1" as="geometry">
            <mxPoint x="570" y="210" as="sourcePoint" />
            <Array as="points">
              <mxPoint x="568" y="209" />
              <mxPoint x="620" y="209" />
              <mxPoint x="620" y="250" />
              <mxPoint x="1060" y="250" />
              <mxPoint x="1060" y="262" />
              <mxPoint x="1059" y="262" />
            </Array>
          </mxGeometry>
        </mxCell>
        <mxCell id="eSbXYxMQ_tcYIed6nvcc-48" value="tokenize asset" style="edgeLabel;html=1;align=center;verticalAlign=middle;resizable=0;points=[];" connectable="0" vertex="1" parent="1">
          <mxGeometry x="524.0000000000001" y="309.99802803285894" as="geometry">
            <mxPoint x="1" y="-100" as="offset" />
          </mxGeometry>
        </mxCell>
        <mxCell id="eSbXYxMQ_tcYIed6nvcc-49" value="withdraw liquid funds" style="edgeLabel;html=1;align=center;verticalAlign=middle;resizable=0;points=[];" connectable="0" vertex="1" parent="1">
          <mxGeometry x="511.0000000000001" y="248.99802803285894" as="geometry">
            <mxPoint x="-2" y="-1" as="offset" />
          </mxGeometry>
        </mxCell>
        <mxCell id="eSbXYxMQ_tcYIed6nvcc-50" value="buy token" style="edgeLabel;html=1;align=center;verticalAlign=middle;resizable=0;points=[];" connectable="0" vertex="1" parent="1">
          <mxGeometry x="310.0000000000001" y="229.99802803285894" as="geometry" />
        </mxCell>
        <mxCell id="eSbXYxMQ_tcYIed6nvcc-52" value="tokenize asset" style="edgeLabel;html=1;align=center;verticalAlign=middle;resizable=0;points=[];" connectable="0" vertex="1" parent="1">
          <mxGeometry x="318.0000000000001" y="340.99802803285894" as="geometry">
            <mxPoint x="2" y="-4" as="offset" />
          </mxGeometry>
        </mxCell>
        <mxCell id="eSbXYxMQ_tcYIed6nvcc-53" value="withdraw liquid funds" style="edgeLabel;html=1;align=center;verticalAlign=middle;resizable=0;points=[];" connectable="0" vertex="1" parent="1">
          <mxGeometry x="333.0000000000001" y="366.99802803285894" as="geometry">
            <mxPoint x="2" y="-4" as="offset" />
          </mxGeometry>
        </mxCell>
        <mxCell id="eSbXYxMQ_tcYIed6nvcc-57" value="buy token" style="edgeLabel;html=1;align=center;verticalAlign=middle;resizable=0;points=[];" connectable="0" vertex="1" parent="1">
          <mxGeometry x="535.0000000000001" y="328.99802803285894" as="geometry">
            <mxPoint x="1" y="-100" as="offset" />
          </mxGeometry>
        </mxCell>
        <mxCell id="eSbXYxMQ_tcYIed6nvcc-61" style="edgeStyle=orthogonalEdgeStyle;rounded=0;orthogonalLoop=1;jettySize=auto;html=1;exitX=0.52;exitY=1.004;exitDx=0;exitDy=0;exitPerimeter=0;entryX=0.5;entryY=0;entryDx=0;entryDy=0;" edge="1" parent="1" source="eSbXYxMQ_tcYIed6nvcc-14" target="eSbXYxMQ_tcYIed6nvcc-30">
          <mxGeometry relative="1" as="geometry">
            <Array as="points">
              <mxPoint x="1261" y="510" />
              <mxPoint x="1261" y="650" />
              <mxPoint x="858" y="650" />
            </Array>
          </mxGeometry>
        </mxCell>
        <mxCell id="eSbXYxMQ_tcYIed6nvcc-62" value="distribute revenue" style="edgeLabel;html=1;align=center;verticalAlign=middle;resizable=0;points=[];" connectable="0" vertex="1" parent="eSbXYxMQ_tcYIed6nvcc-61">
          <mxGeometry x="-0.9492" y="-1" relative="1" as="geometry">
            <mxPoint x="-3" y="-1" as="offset" />
          </mxGeometry>
        </mxCell>
        <mxCell id="eSbXYxMQ_tcYIed6nvcc-64" style="edgeStyle=orthogonalEdgeStyle;rounded=0;orthogonalLoop=1;jettySize=auto;html=1;exitX=0.264;exitY=1.024;exitDx=0;exitDy=0;exitPerimeter=0;" edge="1" parent="1" source="eSbXYxMQ_tcYIed6nvcc-13" target="eSbXYxMQ_tcYIed6nvcc-31">
          <mxGeometry relative="1" as="geometry">
            <Array as="points">
              <mxPoint x="1016" y="500" />
              <mxPoint x="1059" y="500" />
              <mxPoint x="1059" y="597" />
              <mxPoint x="1058" y="597" />
            </Array>
          </mxGeometry>
        </mxCell>
        <mxCell id="eSbXYxMQ_tcYIed6nvcc-67" value="whitelist (can withdraw)" style="edgeLabel;html=1;align=center;verticalAlign=middle;resizable=0;points=[];" connectable="0" vertex="1" parent="eSbXYxMQ_tcYIed6nvcc-64">
          <mxGeometry x="-0.822" y="1" relative="1" as="geometry">
            <mxPoint x="2" y="-7" as="offset" />
          </mxGeometry>
        </mxCell>
        <mxCell id="eSbXYxMQ_tcYIed6nvcc-65" style="edgeStyle=orthogonalEdgeStyle;rounded=0;orthogonalLoop=1;jettySize=auto;html=1;entryX=0.5;entryY=0;entryDx=0;entryDy=0;exitX=0.5;exitY=1;exitDx=0;exitDy=0;" edge="1" parent="1" target="eSbXYxMQ_tcYIed6nvcc-30">
          <mxGeometry relative="1" as="geometry">
            <Array as="points">
              <mxPoint x="858" y="650" />
              <mxPoint x="858" y="732" />
            </Array>
            <mxPoint x="857.75" y="462.43000000000006" as="sourcePoint" />
            <mxPoint x="852.1300000000001" y="732.43" as="targetPoint" />
          </mxGeometry>
        </mxCell>
        <mxCell id="eSbXYxMQ_tcYIed6nvcc-66" value="whitelist (fractional owner wallets)" style="edgeLabel;html=1;align=center;verticalAlign=middle;resizable=0;points=[];" connectable="0" vertex="1" parent="eSbXYxMQ_tcYIed6nvcc-65">
          <mxGeometry x="-0.8431" relative="1" as="geometry">
            <mxPoint x="17" y="10" as="offset" />
          </mxGeometry>
        </mxCell>
        <mxCell id="eSbXYxMQ_tcYIed6nvcc-71" value="transfer funds" style="edgeLabel;html=1;align=center;verticalAlign=middle;resizable=0;points=[];" connectable="0" vertex="1" parent="1">
          <mxGeometry x="1120.4970087939917" y="483.9983107018874" as="geometry" />
        </mxCell>
        <mxCell id="eSbXYxMQ_tcYIed6nvcc-73" style="edgeStyle=orthogonalEdgeStyle;rounded=0;orthogonalLoop=1;jettySize=auto;html=1;entryX=1;entryY=0.25;entryDx=0;entryDy=0;exitX=0.5;exitY=1;exitDx=0;exitDy=0;" edge="1" parent="1" target="eSbXYxMQ_tcYIed6nvcc-11">
          <mxGeometry relative="1" as="geometry">
            <mxPoint x="852.13" y="811.43" as="sourcePoint" />
            <mxPoint x="1140.25" y="300" as="targetPoint" />
            <Array as="points">
              <mxPoint x="852" y="870" />
              <mxPoint x="1419" y="870" />
              <mxPoint x="1419" y="282" />
            </Array>
          </mxGeometry>
        </mxCell>
        <mxCell id="eSbXYxMQ_tcYIed6nvcc-75" value="transfer funds (buy token)" style="edgeLabel;html=1;align=center;verticalAlign=middle;resizable=0;points=[];" connectable="0" vertex="1" parent="eSbXYxMQ_tcYIed6nvcc-73">
          <mxGeometry x="-0.977" y="-1" relative="1" as="geometry">
            <mxPoint as="offset" />
          </mxGeometry>
        </mxCell>
        <mxCell id="eSbXYxMQ_tcYIed6nvcc-78" value="generate DID" style="edgeLabel;html=1;align=center;verticalAlign=middle;resizable=0;points=[];" connectable="0" vertex="1" parent="1">
          <mxGeometry x="530.0000000000001" y="310.99944444444446" as="geometry" />
        </mxCell>
        <mxCell id="nYs-Er4ms6qR0FIkrKlQ-1" value="register RI" style="edgeLabel;html=1;align=center;verticalAlign=middle;resizable=0;points=[];" connectable="0" vertex="1" parent="1">
          <mxGeometry x="546.0014942528736" y="337.0046958490591" as="geometry">
            <mxPoint x="-10" y="10" as="offset" />
          </mxGeometry>
        </mxCell>
        <mxCell id="nYs-Er4ms6qR0FIkrKlQ-2" value="login BB" style="edgeLabel;html=1;align=center;verticalAlign=middle;resizable=0;points=[];" connectable="0" vertex="1" parent="1">
          <mxGeometry x="552.0014942528736" y="355.0046958490591" as="geometry">
            <mxPoint x="-10" y="10" as="offset" />
          </mxGeometry>
        </mxCell>
        <mxCell id="nYs-Er4ms6qR0FIkrKlQ-3" value="login RI" style="edgeLabel;html=1;align=center;verticalAlign=middle;resizable=0;points=[];" connectable="0" vertex="1" parent="1">
          <mxGeometry x="552.0014942528736" y="371.9946958490591" as="geometry">
            <mxPoint x="-10" y="10" as="offset" />
          </mxGeometry>
        </mxCell>
        <mxCell id="nYs-Er4ms6qR0FIkrKlQ-4" style="edgeStyle=orthogonalEdgeStyle;rounded=0;orthogonalLoop=1;jettySize=auto;html=1;entryX=1;entryY=0.5;entryDx=0;entryDy=0;exitX=1;exitY=0.75;exitDx=0;exitDy=0;" edge="1" parent="1" source="eSbXYxMQ_tcYIed6nvcc-15">
          <mxGeometry relative="1" as="geometry">
            <Array as="points">
              <mxPoint x="580" y="347" />
              <mxPoint x="580" y="455" />
            </Array>
            <mxPoint x="568" y="350" as="sourcePoint" />
            <mxPoint x="568" y="455" as="targetPoint" />
          </mxGeometry>
        </mxCell>
        <mxCell id="nYs-Er4ms6qR0FIkrKlQ-5" value="" style="rounded=1;whiteSpace=wrap;html=1;" vertex="1" parent="1">
          <mxGeometry x="1189" y="697.43" width="180" height="150" as="geometry" />
        </mxCell>
        <mxCell id="nYs-Er4ms6qR0FIkrKlQ-6" value="Revenue Plugin" style="text;html=1;strokeColor=none;fillColor=none;align=center;verticalAlign=middle;whiteSpace=wrap;rounded=0;fontStyle=1;shadow=1;" vertex="1" parent="1">
          <mxGeometry x="1227.5" y="667.43" width="105" height="30" as="geometry" />
        </mxCell>
        <mxCell id="nYs-Er4ms6qR0FIkrKlQ-7" value="Revenue Receiver Contract" style="rounded=1;whiteSpace=wrap;html=1;" vertex="1" parent="1">
          <mxGeometry x="1197.5" y="731" width="165" height="80" as="geometry" />
        </mxCell>
        <mxCell id="nYs-Er4ms6qR0FIkrKlQ-8" value="" style="rounded=1;whiteSpace=wrap;html=1;" vertex="1" parent="1">
          <mxGeometry x="380" y="720" width="210" height="110" as="geometry" />
        </mxCell>
        <mxCell id="nYs-Er4ms6qR0FIkrKlQ-9" value="Hardware" style="text;html=1;strokeColor=none;fillColor=none;align=center;verticalAlign=middle;whiteSpace=wrap;rounded=0;fontStyle=1;shadow=1;" vertex="1" parent="1">
          <mxGeometry x="433.5" y="690" width="105" height="30" as="geometry" />
        </mxCell>
        <mxCell id="nYs-Er4ms6qR0FIkrKlQ-10" value="Battery Simulator" style="rounded=1;whiteSpace=wrap;html=1;" vertex="1" parent="1">
          <mxGeometry x="403.5" y="735" width="165" height="80" as="geometry" />
        </mxCell>
        <mxCell id="nYs-Er4ms6qR0FIkrKlQ-11" style="edgeStyle=orthogonalEdgeStyle;rounded=0;orthogonalLoop=1;jettySize=auto;html=1;exitX=0.5;exitY=1;exitDx=0;exitDy=0;entryX=0.5;entryY=1;entryDx=0;entryDy=0;" edge="1" parent="1" source="nYs-Er4ms6qR0FIkrKlQ-10" target="nYs-Er4ms6qR0FIkrKlQ-7">
          <mxGeometry relative="1" as="geometry">
            <Array as="points">
              <mxPoint x="486" y="920" />
              <mxPoint x="1280" y="920" />
            </Array>
            <mxPoint x="577" y="865" as="sourcePoint" />
            <mxPoint x="1240" y="900" as="targetPoint" />
          </mxGeometry>
        </mxCell>
        <mxCell id="nYs-Er4ms6qR0FIkrKlQ-12" value="send kWh metering every second" style="edgeLabel;html=1;align=center;verticalAlign=middle;resizable=0;points=[];" connectable="0" vertex="1" parent="1">
          <mxGeometry x="493.00328618021865" y="847.4275455315861" as="geometry" />
        </mxCell>
        <mxCell id="nYs-Er4ms6qR0FIkrKlQ-13" style="edgeStyle=orthogonalEdgeStyle;rounded=0;orthogonalLoop=1;jettySize=auto;html=1;exitX=0.5;exitY=0;exitDx=0;exitDy=0;entryX=1;entryY=0.75;entryDx=0;entryDy=0;" edge="1" parent="1" source="nYs-Er4ms6qR0FIkrKlQ-7" target="eSbXYxMQ_tcYIed6nvcc-11">
          <mxGeometry relative="1" as="geometry">
            <Array as="points">
              <mxPoint x="1280" y="710" />
              <mxPoint x="1399" y="710" />
              <mxPoint x="1399" y="322" />
              <mxPoint x="1140" y="322" />
            </Array>
            <mxPoint x="525" y="825" as="sourcePoint" />
            <mxPoint x="1290" y="821" as="targetPoint" />
          </mxGeometry>
        </mxCell>
        <mxCell id="nYs-Er4ms6qR0FIkrKlQ-14" value="transfer funds (pay for service)" style="edgeLabel;html=1;align=center;verticalAlign=middle;resizable=0;points=[];" connectable="0" vertex="1" parent="1">
          <mxGeometry x="1320.995419580177" y="711.9991257680781" as="geometry">
            <mxPoint x="-35" y="7" as="offset" />
          </mxGeometry>
        </mxCell>
        <mxCell id="nYs-Er4ms6qR0FIkrKlQ-15" value="whitelist (registered investor wallets)" style="edgeLabel;html=1;align=center;verticalAlign=middle;resizable=0;points=[];" connectable="0" vertex="1" parent="1">
          <mxGeometry x="851.9985714285715" y="493.9971428571428" as="geometry" />
        </mxCell>
        <mxCell id="nYs-Er4ms6qR0FIkrKlQ-16" value="to revenue distribution contract" style="edgeLabel;html=1;align=center;verticalAlign=middle;resizable=0;points=[];" connectable="0" vertex="1" parent="1">
          <mxGeometry x="1227.0001989636976" y="310.99911656835513" as="geometry" />
        </mxCell>
        <mxCell id="nYs-Er4ms6qR0FIkrKlQ-17" value="to liquidity contract" style="edgeLabel;html=1;align=center;verticalAlign=middle;resizable=0;points=[];" connectable="0" vertex="1" parent="1">
          <mxGeometry x="1199.5001989636976" y="271.99911656835513" as="geometry" />
        </mxCell>
        <mxCell id="nYs-Er4ms6qR0FIkrKlQ-18" value="IPFS" style="rounded=1;whiteSpace=wrap;html=1;" vertex="1" parent="1">
          <mxGeometry x="747.75" y="572.5" width="92.25" height="80" as="geometry" />
        </mxCell>
        <mxCell id="nYs-Er4ms6qR0FIkrKlQ-19" value="" style="endArrow=none;html=1;rounded=0;fontStyle=4;exitX=1;exitY=0.199;exitDx=0;exitDy=0;exitPerimeter=0;" edge="1" parent="1">
          <mxGeometry width="50" height="50" relative="1" as="geometry">
            <mxPoint x="567.5" y="228.78750000000002" as="sourcePoint" />
            <mxPoint x="620" y="229" as="targetPoint" />
          </mxGeometry>
        </mxCell>
        <mxCell id="nYs-Er4ms6qR0FIkrKlQ-20" value="" style="endArrow=none;html=1;rounded=0;exitX=0.989;exitY=0.222;exitDx=0;exitDy=0;exitPerimeter=0;" edge="1" parent="1">
          <mxGeometry width="50" height="50" relative="1" as="geometry">
            <mxPoint x="567.5" y="250" as="sourcePoint" />
            <mxPoint x="621.5" y="250" as="targetPoint" />
          </mxGeometry>
        </mxCell>
        <mxCell id="nYs-Er4ms6qR0FIkrKlQ-21" value="store battery data" style="edgeLabel;html=1;align=center;verticalAlign=middle;resizable=0;points=[];" connectable="0" vertex="1" parent="1">
          <mxGeometry x="513.0000000000001" y="275.99802803285894" as="geometry">
            <mxPoint x="3" y="-8" as="offset" />
          </mxGeometry>
        </mxCell>
        <mxCell id="nYs-Er4ms6qR0FIkrKlQ-24" value="" style="endArrow=classic;html=1;rounded=0;exitX=1;exitY=0.384;exitDx=0;exitDy=0;exitPerimeter=0;entryX=0;entryY=0.5;entryDx=0;entryDy=0;edgeStyle=orthogonalEdgeStyle;" edge="1" parent="1" source="eSbXYxMQ_tcYIed6nvcc-15" target="nYs-Er4ms6qR0FIkrKlQ-18">
          <mxGeometry width="50" height="50" relative="1" as="geometry">
            <mxPoint x="590" y="330" as="sourcePoint" />
            <mxPoint x="640" y="280" as="targetPoint" />
            <Array as="points">
              <mxPoint x="650" y="269" />
              <mxPoint x="650" y="612" />
            </Array>
          </mxGeometry>
        </mxCell>
      </root>
    </mxGraphModel>
  </diagram>
</mxfile>
